<svg xmlns="http://www.w3.org/2000/svg" viewBox="0 0 428 132.98"><defs><style>.fc92b762-379c-4800-afac-98564ef8626d{fill:#35495e;}.e4703068-213b-4bf3-ba06-f1b315d26a19{fill:#42b883;}</style></defs><title>Risorsa 3</title><g id="bf768bc5-d1e5-4784-baab-7e07d0fda93d" data-name="Livello 2"><g id="01349b88-8c66-4bf2-910d-64def8511cd6" data-name="Livello 1"><path class="fc92b762-379c-4800-afac-98564ef8626d" d="M120.84,104.77l-3.51-2.48a62.14,62.14,0,0,0-7.61-80.49l3-3.09a66.47,66.47,0,0,1,8.13,86.06Z"/><path class="fc92b762-379c-4800-afac-98564ef8626d" d="M115.09,111.83,112,108.9c1-1,1.93-2.13,2.85-3.27l3.33,2.71C117.14,109.55,116.12,110.73,115.09,111.83Z"/><path class="fc92b762-379c-4800-afac-98564ef8626d" d="M7.66,46.23,3.6,44.83A66.62,66.62,0,0,1,65.67,0l0,4.29A62.3,62.3,0,0,0,7.66,46.23Z"/><path class="fc92b762-379c-4800-afac-98564ef8626d" d="M74,4.75c-1.36-.16-2.73-.29-4.11-.37L70.13.1c1.47.08,2.93.22,4.38.39Z"/><path class="fc92b762-379c-4800-afac-98564ef8626d" d="M66.48,133a66.33,66.33,0,0,1-59-35.83l3.8-2a62.06,62.06,0,0,0,55.21,33.52,60.22,60.22,0,0,0,6.59-.36l.46,4.27A66.18,66.18,0,0,1,66.48,133Z"/><path class="fc92b762-379c-4800-afac-98564ef8626d" d="M5.75,93.6C5.11,92.18,4.52,90.72,4,89.27L8,87.8c.5,1.35,1.05,2.72,1.65,4Z"/><path class="fc92b762-379c-4800-afac-98564ef8626d" d="M118.93,91.05,115,89.23a53.07,53.07,0,0,0,5.06-22.75,53.67,53.67,0,0,0-6.58-25.74l3.76-2.07a58,58,0,0,1,1.65,52.38Z"/><path class="fc92b762-379c-4800-afac-98564ef8626d" d="M114.22,99.26l-3.54-2.43c.85-1.22,1.65-2.51,2.4-3.82l3.72,2.13C116,96.55,115.13,97.94,114.22,99.26Z"/><path class="fc92b762-379c-4800-afac-98564ef8626d" d="M22.31,36.08l-3.54-2.43a57.59,57.59,0,0,1,36.71-24l.81,4.22A53.28,53.28,0,0,0,22.31,36.08Z"/><path class="fc92b762-379c-4800-afac-98564ef8626d" d="M60.18,13.24,59.68,9c1.54-.18,3.1-.3,4.66-.35l.15,4.28C63.05,13,61.6,13.08,60.18,13.24Z"/><path class="fc92b762-379c-4800-afac-98564ef8626d" d="M58.32,123.83a57.56,57.56,0,0,1-37.67-22L24,99.26a53.31,53.31,0,0,0,34.88,20.32Z"/><path class="fc92b762-379c-4800-afac-98564ef8626d" d="M18.22,98.5c-.86-1.3-1.68-2.65-2.44-4l3.75-2.08c.7,1.27,1.46,2.52,2.27,3.72Z"/><path class="fc92b762-379c-4800-afac-98564ef8626d" d="M32.94,36.42l-3.19-2.86A49.39,49.39,0,0,1,50,20l1.44,4A45.3,45.3,0,0,0,32.94,36.42Z"/><path class="fc92b762-379c-4800-afac-98564ef8626d" d="M55.07,22.91,54,18.76c1.44-.37,2.91-.69,4.38-.93l.7,4.23C57.72,22.28,56.38,22.57,55.07,22.91Z"/><path class="fc92b762-379c-4800-afac-98564ef8626d" d="M53.82,114.18a49.47,49.47,0,0,1-21.13-11.76l2.94-3.13A45,45,0,0,0,54.92,110Z"/><path class="fc92b762-379c-4800-afac-98564ef8626d" d="M29.58,99.21c-1-1.17-2-2.41-3-3.68L30.08,93c.84,1.16,1.75,2.29,2.71,3.37Z"/><path class="fc92b762-379c-4800-afac-98564ef8626d" d="M113.75,80.6l-4.11-1.23a45.17,45.17,0,0,0-1.2-29.29l4-1.57a49.44,49.44,0,0,1,1.32,32.09Z"/><path class="fc92b762-379c-4800-afac-98564ef8626d" d="M110.21,89.31l-3.8-2c.69-1.31,1.31-2.67,1.87-4l4,1.61C111.65,86.38,111,87.87,110.21,89.31Z"/><path class="e4703068-213b-4bf3-ba06-f1b315d26a19" d="M77.33,133a26,26,0,0,1-25-19.12A25.7,25.7,0,0,1,52.84,99,13,13,0,0,0,49,85.36L48.68,85a13.65,13.65,0,0,0-14.2-2.92A25.75,25.75,0,0,1,1.23,50,26,26,0,0,1,26.66,32.17a25.89,25.89,0,0,1,17,7.26,13.11,13.11,0,0,0,13.73,3l.25-.09a13.57,13.57,0,0,0,9-11,25.74,25.74,0,0,1,38.07-19.47h0a25.74,25.74,0,0,1,8.41,37.48,25.55,25.55,0,0,1-9.68,8.16A20,20,0,0,0,92.05,72.11c0,.28-.09.55-.15.82-1.21,6,.66,12.52,5.14,17.91a25.73,25.73,0,0,1-14.23,41.52A25.06,25.06,0,0,1,77.33,133Z"/><path class="fc92b762-379c-4800-afac-98564ef8626d" d="M66.48,83.64A17.16,17.16,0,1,1,83.64,66.48,17.18,17.18,0,0,1,66.48,83.64Zm0-30A12.87,12.87,0,1,0,79.35,66.48,12.88,12.88,0,0,0,66.48,53.62Z"/><path class="fc92b762-379c-4800-afac-98564ef8626d" d="M92.22,51.47A17.16,17.16,0,1,1,106,44.59L102.52,42a12.73,12.73,0,0,0,2.56-7.71A12.87,12.87,0,1,0,92.22,47.18a12.72,12.72,0,0,0,8-2.81l2.68,3.35A17.17,17.17,0,0,1,92.22,51.47Z"/><path class="fc92b762-379c-4800-afac-98564ef8626d" d="M92.22,42.89a8.58,8.58,0,1,1,8.58-8.58A8.59,8.59,0,0,1,92.22,42.89Zm0-12.87a4.29,4.29,0,1,0,4.29,4.29A4.3,4.3,0,0,0,92.22,30Z"/><path class="fc92b762-379c-4800-afac-98564ef8626d" d="M25.73,75.06A17.16,17.16,0,1,1,42.89,57.91,17.17,17.17,0,0,1,25.73,75.06Zm0-30A12.87,12.87,0,1,0,38.6,57.91,12.88,12.88,0,0,0,25.73,45Z"/><path class="fc92b762-379c-4800-afac-98564ef8626d" d="M25.73,66.48a8.58,8.58,0,1,1,8.58-8.57A8.58,8.58,0,0,1,25.73,66.48Zm0-12.86A4.29,4.29,0,1,0,30,57.91,4.29,4.29,0,0,0,25.73,53.62Z"/><path class="fc92b762-379c-4800-afac-98564ef8626d" d="M77.2,124.4a17.16,17.16,0,1,1,17.16-17.16A17.18,17.18,0,0,1,77.2,124.4Zm0-30a12.87,12.87,0,1,0,12.87,12.87A12.89,12.89,0,0,0,77.2,94.37Z"/><path class="fc92b762-379c-4800-afac-98564ef8626d" d="M77.2,115.82a8.58,8.58,0,1,1,8.58-8.58A8.59,8.59,0,0,1,77.2,115.82Zm0-12.87a4.29,4.29,0,1,0,4.29,4.29A4.3,4.3,0,0,0,77.2,103Z"/><path class="fc92b762-379c-4800-afac-98564ef8626d" d="M159.54,70.49l-16.91-47.3H153l12,35,11.59-35h10.13l-16.94,47.3Z"/><path class="fc92b762-379c-4800-afac-98564ef8626d" d="M211.59,70.49V65.36a13.19,13.19,0,0,1-4.92,4.32,13.75,13.75,0,0,1-6.44,1.58,12.62,12.62,0,0,1-6.2-1.51,8.93,8.93,0,0,1-4-4.26,19,19,0,0,1-1.23-7.58V36.22h9.07V52c0,4.82.16,7.77.5,8.86a4.86,4.86,0,0,0,1.82,2.58,5.63,5.63,0,0,0,3.36,1,7.16,7.16,0,0,0,4.16-1.28,6.56,6.56,0,0,0,2.52-3.16q.67-1.89.67-9.24V36.22H220V70.49Z"/><path class="fc92b762-379c-4800-afac-98564ef8626d" d="M249.25,59.58l9,1.52a14.9,14.9,0,0,1-5.5,7.57,16.18,16.18,0,0,1-9.41,2.59q-8.94,0-13.23-5.84a19.6,19.6,0,0,1-3.39-11.81q0-8.52,4.46-13.34a14.68,14.68,0,0,1,11.26-4.82q7.65,0,12.07,5T258.76,56H236.05a9.16,9.16,0,0,0,2.19,6.28,6.88,6.88,0,0,0,5.23,2.24,5.57,5.57,0,0,0,3.58-1.16A7.25,7.25,0,0,0,249.25,59.58Zm.51-9.16a8.72,8.72,0,0,0-2-6,6.54,6.54,0,0,0-9.62.12,8.37,8.37,0,0,0-1.9,5.87Z"/><path class="e4703068-213b-4bf3-ba06-f1b315d26a19" d="M148.7,106V77.85h10.61a25.53,25.53,0,0,1,4.28.27,8.53,8.53,0,0,1,3.47,1.31,7,7,0,0,1,2.26,2.72,9.18,9.18,0,0,1-1.43,9.91c-1.53,1.66-4.28,2.48-8.26,2.48h-7.21V106Zm3.72-14.75h7.27c2.41,0,4.11-.45,5.13-1.35a4.77,4.77,0,0,0,1.51-3.78,5.13,5.13,0,0,0-.89-3,4.19,4.19,0,0,0-2.35-1.66,15.7,15.7,0,0,0-3.47-.25h-7.2Z"/><path class="e4703068-213b-4bf3-ba06-f1b315d26a19" d="M174.43,106V85.6h3.11v3.09a8.47,8.47,0,0,1,2.19-2.86,3.86,3.86,0,0,1,2.22-.69,6.68,6.68,0,0,1,3.55,1.12l-1.19,3.2a4.92,4.92,0,0,0-2.53-.75,3.32,3.32,0,0,0-2,.68,3.7,3.7,0,0,0-1.28,1.89,13.26,13.26,0,0,0-.58,4V106Z"/><path class="e4703068-213b-4bf3-ba06-f1b315d26a19" d="M186.27,95.79c0-3.77,1-6.57,3.15-8.38a9.46,9.46,0,0,1,6.4-2.27,9.11,9.11,0,0,1,6.87,2.76,10.45,10.45,0,0,1,2.67,7.6,13.42,13.42,0,0,1-1.18,6.19,8.33,8.33,0,0,1-3.43,3.5,10,10,0,0,1-4.93,1.25,9.14,9.14,0,0,1-6.91-2.74Q186.27,101,186.27,95.79Zm3.55,0c0,2.61.57,4.57,1.71,5.86a5.67,5.67,0,0,0,8.57,0q1.71-2,1.71-6A8.4,8.4,0,0,0,200.09,90a5.68,5.68,0,0,0-8.56,0Q189.82,91.88,189.82,95.79Z"/><path class="e4703068-213b-4bf3-ba06-f1b315d26a19" d="M222.63,106v-2.57a6.34,6.34,0,0,1-5.7,3,8,8,0,0,1-4.48-1.34,8.93,8.93,0,0,1-3.17-3.75,13.11,13.11,0,0,1-1.12-5.54,14.41,14.41,0,0,1,1-5.53,8,8,0,0,1,3-3.81,8.11,8.11,0,0,1,4.55-1.33,6.77,6.77,0,0,1,3.28.78,6.86,6.86,0,0,1,2.34,2V77.85h3.43V106ZM211.71,95.81q0,3.91,1.65,5.85a5,5,0,0,0,3.9,1.94,4.84,4.84,0,0,0,3.84-1.85c1.06-1.23,1.59-3.12,1.59-5.65q0-4.18-1.61-6.14a5,5,0,0,0-4-2,4.79,4.79,0,0,0-3.84,1.88C212.23,91.14,211.71,93.11,211.71,95.81Z"/><path class="e4703068-213b-4bf3-ba06-f1b315d26a19" d="M244.62,106v-3a7.47,7.47,0,0,1-6.47,3.45,8.21,8.21,0,0,1-3.36-.69,5.54,5.54,0,0,1-2.33-1.74,6.46,6.46,0,0,1-1.06-2.56,17.53,17.53,0,0,1-.21-3.22V85.6h3.45V96.91a20.22,20.22,0,0,0,.21,3.64,3.63,3.63,0,0,0,1.38,2.14,4.3,4.3,0,0,0,2.61.78,5.7,5.7,0,0,0,2.92-.8,4.41,4.41,0,0,0,1.93-2.17,10.78,10.78,0,0,0,.57-4V85.6h3.45V106Z"/><path class="e4703068-213b-4bf3-ba06-f1b315d26a19" d="M266.42,98.52l3.39.44a8.82,8.82,0,0,1-2.85,5.5,8.29,8.29,0,0,1-5.63,2,8.75,8.75,0,0,1-6.72-2.73c-1.7-1.83-2.54-4.44-2.54-7.84a14.19,14.19,0,0,1,1.09-5.78,7.65,7.65,0,0,1,3.33-3.71,9.92,9.92,0,0,1,4.86-1.24,8.42,8.42,0,0,1,5.43,1.68,7.71,7.71,0,0,1,2.71,4.77l-3.36.52a5.59,5.59,0,0,0-1.7-3.09,4.39,4.39,0,0,0-2.94-1,5.37,5.37,0,0,0-4.24,1.87q-1.63,1.88-1.63,5.92t1.57,6a5.13,5.13,0,0,0,4.11,1.86,4.8,4.8,0,0,0,3.39-1.25A6.21,6.21,0,0,0,266.42,98.52Z"/><path class="e4703068-213b-4bf3-ba06-f1b315d26a19" d="M280.31,102.89l.5,3a12.44,12.44,0,0,1-2.61.31,6,6,0,0,1-2.92-.59,3.32,3.32,0,0,1-1.45-1.57,12,12,0,0,1-.43-4.08V88.29h-2.53V85.6h2.53v-5l3.44-2.08V85.6h3.47v2.69h-3.47v11.92a6.16,6.16,0,0,0,.18,1.9,1.44,1.44,0,0,0,.6.67,2.33,2.33,0,0,0,1.18.25A11.35,11.35,0,0,0,280.31,102.89Z"/><path class="e4703068-213b-4bf3-ba06-f1b315d26a19" d="M293.78,96.94l3.51-.3a7.9,7.9,0,0,0,1.16,3.46,6.39,6.39,0,0,0,2.83,2.19,10.84,10.84,0,0,0,4.32.83,10.4,10.4,0,0,0,3.76-.63,5.17,5.17,0,0,0,2.43-1.74,4,4,0,0,0,.8-2.41,3.67,3.67,0,0,0-.77-2.31,5.71,5.71,0,0,0-2.53-1.66,51.69,51.69,0,0,0-5-1.37,26,26,0,0,1-5.43-1.75,7.61,7.61,0,0,1-3-2.63,6.37,6.37,0,0,1-1-3.5,7.2,7.2,0,0,1,1.2-4,7.57,7.57,0,0,1,3.53-2.81,13.41,13.41,0,0,1,5.17-1,14.1,14.1,0,0,1,5.51,1,8,8,0,0,1,3.68,3,8.58,8.58,0,0,1,1.38,4.44l-3.57.26a5.76,5.76,0,0,0-1.95-4,7.61,7.61,0,0,0-4.9-1.36A7.9,7.9,0,0,0,300,81.89a3.72,3.72,0,0,0-1.55,3,3.21,3.21,0,0,0,1.1,2.5c.71.65,2.59,1.32,5.61,2a37.76,37.76,0,0,1,6.23,1.8A8.5,8.5,0,0,1,315,94a7,7,0,0,1,1.17,4,7.65,7.65,0,0,1-1.28,4.23,8.53,8.53,0,0,1-3.7,3.09,12.93,12.93,0,0,1-5.42,1.1,16.24,16.24,0,0,1-6.4-1.11,8.89,8.89,0,0,1-4-3.35A9.49,9.49,0,0,1,293.78,96.94Z"/><path class="e4703068-213b-4bf3-ba06-f1b315d26a19" d="M320.82,113.79V85.6H324v2.65a7.87,7.87,0,0,1,2.52-2.33,6.86,6.86,0,0,1,3.4-.78,8,8,0,0,1,4.6,1.35,8.18,8.18,0,0,1,3,3.79,13.76,13.76,0,0,1,1,5.36,13.61,13.61,0,0,1-1.12,5.63,8.51,8.51,0,0,1-3.26,3.84,8.38,8.38,0,0,1-4.5,1.33,6.42,6.42,0,0,1-3.1-.73,7,7,0,0,1-2.26-1.84v9.92ZM324,95.91q0,3.93,1.59,5.81a4.87,4.87,0,0,0,3.86,1.88,5,5,0,0,0,3.94-1.95c1.09-1.29,1.64-3.31,1.64-6s-.53-4.54-1.6-5.83a4.81,4.81,0,0,0-3.83-1.94,5,5,0,0,0-3.91,2.06A9.27,9.27,0,0,0,324,95.91Z"/><path class="e4703068-213b-4bf3-ba06-f1b315d26a19" d="M342.69,81.82v-4h3.46v4Zm0,24.16V85.6h3.46V106Z"/><path class="e4703068-213b-4bf3-ba06-f1b315d26a19" d="M351.4,106V85.6h3.11v2.9A7.33,7.33,0,0,1,361,85.14a8.46,8.46,0,0,1,3.38.66,5.4,5.4,0,0,1,2.32,1.74,6.66,6.66,0,0,1,1.07,2.55,19.63,19.63,0,0,1,.19,3.36V106h-3.45V93.59a9.31,9.31,0,0,0-.4-3.16,3.36,3.36,0,0,0-1.43-1.67,4.53,4.53,0,0,0-2.41-.62,5.57,5.57,0,0,0-3.81,1.4q-1.6,1.39-1.6,5.31V106Z"/><path class="e4703068-213b-4bf3-ba06-f1b315d26a19" d="M373.26,106V85.6h3.11v2.9a7.33,7.33,0,0,1,6.48-3.36,8.54,8.54,0,0,1,3.39.66,5.43,5.43,0,0,1,2.31,1.74,6.67,6.67,0,0,1,1.08,2.55,19.63,19.63,0,0,1,.19,3.36V106h-3.45V93.59a9.26,9.26,0,0,0-.41-3.16,3.31,3.31,0,0,0-1.43-1.67,4.47,4.47,0,0,0-2.4-.62,5.54,5.54,0,0,0-3.81,1.4q-1.6,1.39-1.61,5.31V106Z"/><path class="e4703068-213b-4bf3-ba06-f1b315d26a19" d="M409.07,99.42l3.56.44a8.66,8.66,0,0,1-3.12,4.85,10.6,10.6,0,0,1-12.93-1C394.84,101.85,394,99.28,394,96s.89-6.08,2.65-8a9,9,0,0,1,6.87-2.84,8.73,8.73,0,0,1,6.68,2.78q2.59,2.79,2.59,7.83c0,.21,0,.52,0,.92h-15.2a7.91,7.91,0,0,0,1.9,5.15,5.65,5.65,0,0,0,4.26,1.78,5.28,5.28,0,0,0,3.25-1A6.65,6.65,0,0,0,409.07,99.42Zm-11.34-5.59H409.1A6.82,6.82,0,0,0,407.8,90a5.3,5.3,0,0,0-4.28-2,5.45,5.45,0,0,0-4,1.6A6.27,6.27,0,0,0,397.73,93.83Z"/><path class="e4703068-213b-4bf3-ba06-f1b315d26a19" d="M416.93,106V85.6H420v3.09a8.6,8.6,0,0,1,2.2-2.86,3.84,3.84,0,0,1,2.22-.69A6.65,6.65,0,0,1,428,86.26l-1.18,3.2a5,5,0,0,0-2.54-.75,3.31,3.31,0,0,0-2,.68A3.78,3.78,0,0,0,421,91.28a13.58,13.58,0,0,0-.57,4V106Z"/></g></g></svg>