<svg id="Livello_1" xmlns="http://www.w3.org/2000/svg" viewBox="0 0 500 390.5"><style>.st0{fill:#35495e}.st1{fill:#42b883}</style><path class="st0" d="M149.1 232.9c-1-.7-1.2-2-.6-3 6.7-10.1 10.2-21.9 10.2-34.1 0-17-6.7-32.9-19-44.7l3-3.1c13.1 12.6 20.3 29.6 20.3 47.8 0 13.2-3.8 25.7-11 36.5-.6 1-2 1.3-2.9.6zM143.5 239.7c-.8-.8-.9-2-.1-2.9l.2-.2c.7-.9 2-1 2.9-.3.9.8 1 2.1.3 3l-.2.2c-.8 1-2.2 1.1-3.1.2zM35.7 175l-.1-.1c-1.1-.4-1.7-1.6-1.3-2.8 9.4-24.7 32.8-41.5 59.1-42.7 1.2-.1 2.2.9 2.2 2.1v.1c0 1.1-.9 2-2 2.1-24.6 1.1-46.5 16.8-55.4 40-.3 1.1-1.5 1.6-2.5 1.3zM101.9 133.9c-1.2-.1-2-1.1-2-2.2v-.1c.1-1.2 1.1-2.1 2.3-2h.1c1.2.1 2 1.2 1.9 2.3v.1c-.1 1.2-1.1 2-2.3 1.9zM96.5 262.4c-24.2 0-46.2-12.9-57.9-33.9-.6-1-.2-2.4.8-2.9h.1c1-.5 2.3-.2 2.8.8 11 19.6 31.6 31.7 54.2 31.7 1.5 0 3.1 0 4.6-.2 1.1-.1 2.1.7 2.3 1.9.1 1.2-.7 2.3-1.9 2.4-1.8.1-3.4.2-5 .2zM34.9 221.1c0-.1-.1-.2-.1-.3-.5-1.1.1-2.3 1.2-2.8 1.1-.4 2.3.1 2.7 1.2 0 .1.1.2.1.3.4 1-.1 2.2-1.1 2.7-1.1.4-2.4-.1-2.8-1.1z"/><path class="st0" d="M147 219.5c-1.1-.5-1.6-1.7-1.1-2.7 2.8-6.6 4.3-13.6 4.3-20.9 0-9-2.3-17.9-6.6-25.7l3.8-2.1c4.7 8.5 7.1 18.1 7.1 27.8 0 7.8-1.6 15.4-4.6 22.5-.6 1.1-1.8 1.6-2.9 1.1zM142.4 227.4c-1-.7-1.2-1.9-.6-2.9.1-.1.2-.3.3-.4.6-.9 1.8-1.2 2.8-.7 1 .6 1.4 1.9.8 2.9-.1.1-.2.3-.3.4-.6 1.1-2 1.4-3 .7zM50.6 164.4c-1-.7-1.2-2.1-.5-3 8.2-11 19.9-18.6 33.2-21.7 1.2-.3 2.4.5 2.6 1.7.2 1.1-.5 2.2-1.6 2.5-12.4 2.8-23.3 9.9-30.9 20.1-.6.8-1.9 1-2.8.4zM90 140.6v-.1c-.1-1.2.7-2.3 1.9-2.4h.4c1.2-.1 2.2.8 2.3 2v.1c.1 1.1-.8 2.1-1.9 2.2h-.3c-1.3.2-2.3-.7-2.4-1.8zM86.1 252.9c-13.4-2.4-25.4-9.4-34.1-19.8-.8-.9-.6-2.3.3-3.1.9-.7 2.2-.6 2.9.3 8.1 9.7 19.2 16.2 31.6 18.4 1.1.2 1.9 1.3 1.7 2.4-.1 1.2-1.2 2-2.4 1.8zM47 226.1c0-.1-.1-.1-.1-.2-.6-1-.2-2.4.8-3 1-.6 2.3-.2 2.9.8 0 0 0 .1.1.1.6 1 .4 2.3-.6 3-1.1.6-2.5.3-3.1-.7zM61.4 164.4c-.9-.9-1-2.3-.1-3.1 4.7-4.8 10.4-8.6 16.6-11.2 1.1-.5 2.4.1 2.8 1.3.4 1.1-.1 2.2-1.2 2.6-5.7 2.4-10.9 5.9-15.2 10.3-.8.9-2.1.9-2.9.1zM84.6 150.3c-.3-1.2.4-2.5 1.6-2.7h.1c1.2-.2 2.3.6 2.5 1.7v.1c.2 1.1-.5 2.2-1.7 2.4-1.2.3-2.2-.4-2.5-1.5zM81.6 243c-6.4-2-12.3-5.3-17.3-9.7-.9-.8-1-2.2-.2-3.1.8-.8 2.1-.9 2.9-.2 4.6 4 10.1 7 15.9 8.8 1.1.3 1.7 1.5 1.4 2.5v.1c-.3 1.3-1.5 2-2.7 1.6zM58.2 226.9c-.1-.1-.1-.2-.2-.2-.8-.9-.6-2.4.4-3.1.9-.6 2.2-.5 2.9.4.1.1.1.2.2.2.7.9.6 2.2-.2 2.9-1 .9-2.3.8-3.1-.2z"/><path class="st0" d="M141.7 209.4c-1.2-.3-1.8-1.4-1.5-2.5.9-3.6 1.4-7.2 1.4-11 0-5.7-1-11.2-3.1-16.4l4-1.6c2.2 5.7 3.4 11.8 3.4 18 0 4.1-.5 8.1-1.5 12-.4 1.2-1.6 1.9-2.7 1.5zM138.3 217.7c-1.1-.6-1.4-1.8-1-2.8.1-.1.1-.3.2-.4.5-1 1.6-1.5 2.7-1.1h.1c1.1.5 1.6 1.8 1.1 2.9l-.2.4c-.6 1.1-1.9 1.6-2.9 1z"/><path class="st1" d="M147.2 158.1c-1.6-7.1-6.2-13.3-12.6-16.9-10.4-5.8-23.7-3.6-31.6 5.3-3.6 4-5.8 8.9-6.4 14.2-.5 4.9-4 9.2-9 11l-.2.1c-4.6 1.8-10 .6-13.7-3-4.5-4.5-10.6-7-17-7.3-11.2-.5-22 7-25.4 17.8-2.3 7.1-1.4 14.7 2.3 21 3.7 6.3 9.9 10.8 17.1 12.2 4.6.9 9.4.6 13.8-1 5-1.8 10.4-.7 14.2 2.9l.3.3c3.9 3.6 5.4 9 3.8 13.6-1.6 4.8-1.8 10-.5 14.9 3 11.4 13.6 19.1 25 19.1 1.8 0 3.7-.2 5.2-.5 6.9-1.6 12.7-5.8 16.4-11.8 3.7-6.1 4.7-13.2 2.9-20-.9-3.6-2.6-6.9-5-9.8-4.4-5.4-6.3-11.9-5.1-17.9.1-.3.2-.5.2-.8 1.1-6.3 5.2-11.6 11.4-14.6 3.9-1.9 7.2-4.7 9.7-8.2 4.3-6 5.8-13.5 4.2-20.6zm-91.5 37.8c-4.7 0-8.6-3.9-8.6-8.6 0-4.7 3.9-8.6 8.6-8.6s8.6 3.9 8.6 8.6c0 4.8-3.9 8.6-8.6 8.6zm51.5 49.3c-4.7 0-8.6-3.9-8.6-8.6 0-4.7 3.9-8.6 8.6-8.6s8.6 3.9 8.6 8.6c0 4.8-3.9 8.6-8.6 8.6zm15-72.9c-4.7 0-8.6-3.9-8.6-8.6 0-4.7 3.9-8.6 8.6-8.6s8.6 3.9 8.6 8.6c0 4.8-3.9 8.6-8.6 8.6z"/><g><path class="st0" d="M96.5 213c-9.5 0-17.2-7.7-17.2-17.2s7.7-17.2 17.2-17.2 17.2 7.7 17.2 17.2c-.1 9.5-7.8 17.2-17.2 17.2zm0-30c-7.1 0-12.9 5.8-12.9 12.9s5.8 12.9 12.9 12.9 12.9-5.8 12.9-12.9c-.1-7.1-5.8-12.9-12.9-12.9z"/></g><g><path class="st0" d="M189.5 199.9l-16.9-47.3H183l12 35 11.6-35h10.1l-16.9 47.3h-10.3zM241.6 199.9v-5.1c-1.2 1.8-2.9 3.3-4.9 4.3s-4.2 1.6-6.4 1.6c-2.3 0-4.4-.5-6.2-1.5s-3.2-2.4-4-4.3c-.8-1.8-1.2-4.4-1.2-7.6v-21.7h9.1v15.7c0 4.8.2 7.8.5 8.9.3 1.1.9 1.9 1.8 2.6.9.6 2 1 3.4 1 1.5 0 2.9-.4 4.2-1.3s2.1-1.9 2.5-3.2c.5-1.3.7-4.3.7-9.2v-14.5h9.1v34.3h-8.6zM279.2 189l9 1.5c-1.2 3.3-3 5.8-5.5 7.6-2.5 1.7-5.6 2.6-9.4 2.6-6 0-10.4-1.9-13.2-5.8-2.3-3.1-3.4-7.1-3.4-11.8 0-5.7 1.5-10.1 4.5-13.3s6.7-4.8 11.3-4.8c5.1 0 9.1 1.7 12.1 5.1s4.4 8.5 4.2 15.5H266c.1 2.7.8 4.8 2.2 6.3s3.1 2.2 5.2 2.2c1.4 0 2.6-.4 3.6-1.2 1-1 1.7-2.2 2.2-3.9zm.5-9.2c-.1-2.6-.7-4.6-2-6s-2.9-2-4.7-2c-2 0-3.6.7-4.9 2.2-1.3 1.4-1.9 3.4-1.9 5.9l13.5-.1z"/><g><path class="st1" d="M178.7 235.4v-28.2h10.6c1.9 0 3.3.1 4.3.3 1.4.2 2.5.7 3.5 1.3.9.6 1.7 1.6 2.3 2.7.6 1.2.9 2.4.9 3.8 0 2.4-.8 4.4-2.3 6.1s-4.3 2.5-8.3 2.5h-7.2v11.4h-3.8v.1zm3.7-14.8h7.3c2.4 0 4.1-.4 5.1-1.3s1.5-2.2 1.5-3.8c0-1.2-.3-2.2-.9-3-.6-.8-1.4-1.4-2.4-1.7-.6-.2-1.8-.2-3.5-.2h-7.2l.1 10zM204.4 235.4V215h3.1v3.1c.8-1.4 1.5-2.4 2.2-2.9s1.4-.7 2.2-.7c1.2 0 2.3.4 3.5 1.1l-1.2 3.2c-.8-.5-1.7-.7-2.5-.7s-1.4.2-2 .7-1 1.1-1.3 1.9c-.4 1.2-.6 2.6-.6 4v10.7h-3.4zM216.3 225.2c0-3.8 1-6.6 3.1-8.4 1.8-1.5 3.9-2.3 6.4-2.3 2.8 0 5.1.9 6.9 2.8 1.8 1.8 2.7 4.4 2.7 7.6 0 2.6-.4 4.7-1.2 6.2s-1.9 2.7-3.4 3.5-3.1 1.2-4.9 1.2c-2.9 0-5.2-.9-6.9-2.7-1.9-1.9-2.7-4.5-2.7-7.9zm3.5 0c0 2.6.6 4.6 1.7 5.9 1.1 1.3 2.6 1.9 4.3 1.9s3.1-.7 4.3-2 1.7-3.3 1.7-6c0-2.5-.6-4.4-1.7-5.7-1.1-1.3-2.6-1.9-4.3-1.9s-3.2.6-4.3 1.9c-1.1 1.3-1.7 3.3-1.7 5.9zM252.6 235.4v-2.6c-1.3 2-3.2 3-5.7 3-1.6 0-3.1-.4-4.5-1.3s-2.4-2.1-3.2-3.8c-.7-1.6-1.1-3.5-1.1-5.5s.3-3.9 1-5.5c.7-1.7 1.7-2.9 3.1-3.8s2.9-1.3 4.5-1.3c1.2 0 2.3.3 3.3.8s1.7 1.2 2.3 2v-10.2h3.4v28.1h-3.1v.1zm-10.9-10.2c0 2.6.5 4.6 1.7 5.9 1.1 1.3 2.4 1.9 3.9 1.9s2.8-.6 3.8-1.9c1.1-1.2 1.6-3.1 1.6-5.7 0-2.8-.5-4.8-1.6-6.1-1.1-1.3-2.4-2-4-2-1.5 0-2.8.6-3.8 1.9-1.1 1.3-1.6 3.3-1.6 6zM274.6 235.4v-3c-1.6 2.3-3.7 3.5-6.5 3.5-1.2 0-2.3-.2-3.4-.7-1-.5-1.8-1-2.3-1.7s-.9-1.6-1.1-2.6c-.1-.7-.2-1.8-.2-3.2v-12.6h3.5v11.3c0 1.8.1 3 .2 3.6.2.9.7 1.6 1.4 2.1s1.6.8 2.6.8 2-.3 2.9-.8 1.6-1.3 1.9-2.2c.4-.9.6-2.2.6-4V215h3.5v20.4h-3.1zM296.4 227.9l3.4.4c-.4 2.3-1.3 4.2-2.8 5.5s-3.4 2-5.6 2c-2.8 0-5-.9-6.7-2.7-1.7-1.8-2.5-4.4-2.5-7.8 0-2.2.4-4.1 1.1-5.8.7-1.7 1.8-2.9 3.3-3.7 1.5-.8 3.1-1.2 4.9-1.2 2.2 0 4 .6 5.4 1.7s2.3 2.7 2.7 4.8l-3.4.5c-.3-1.4-.9-2.4-1.7-3.1-.8-.7-1.8-1-2.9-1-1.7 0-3.2.6-4.2 1.9s-1.6 3.2-1.6 5.9.5 4.7 1.6 6c1 1.2 2.4 1.9 4.1 1.9 1.4 0 2.5-.4 3.4-1.2.7-1.1 1.3-2.4 1.5-4.1zM310.3 232.3l.5 3.1c-1 .2-1.8.3-2.6.3-1.3 0-2.2-.2-2.9-.6-.7-.4-1.2-.9-1.5-1.6-.3-.6-.4-2-.4-4.1v-11.7h-2.5V215h2.5v-5l3.4-2.1v7.1h3.5v2.7h-3.5v11.9c0 1 .1 1.6.2 1.9s.3.5.6.7.7.2 1.2.2c.4 0 .9 0 1.5-.1zM323.8 226.3l3.5-.3c.2 1.4.6 2.6 1.2 3.5s1.6 1.6 2.8 2.2c1.3.6 2.7.8 4.3.8 1.4 0 2.7-.2 3.8-.6 1.1-.4 1.9-1 2.4-1.7s.8-1.5.8-2.4-.3-1.7-.8-2.3-1.4-1.2-2.5-1.7c-.8-.3-2.4-.8-5-1.4s-4.4-1.2-5.4-1.8c-1.3-.7-2.3-1.6-3-2.6s-1-2.2-1-3.5c0-1.4.4-2.7 1.2-4 .8-1.2 2-2.2 3.5-2.8s3.3-1 5.2-1c2.1 0 3.9.3 5.5 1s2.8 1.7 3.7 3c.9 1.3 1.3 2.8 1.4 4.4l-3.6.3c-.2-1.8-.8-3.1-1.9-4s-2.7-1.4-4.9-1.4c-2.3 0-3.9.4-4.9 1.2s-1.5 1.8-1.5 3c0 1 .4 1.8 1.1 2.5s2.6 1.3 5.6 2 5.1 1.3 6.2 1.8c1.6.8 2.8 1.7 3.6 2.9.8 1.2 1.2 2.5 1.2 4s-.4 2.9-1.3 4.2c-.9 1.3-2.1 2.4-3.7 3.1s-3.4 1.1-5.4 1.1c-2.5 0-4.7-.4-6.4-1.1-1.7-.7-3.1-1.9-4-3.3-1.2-1.5-1.7-3.2-1.7-5.1zM350.8 243.2V215h3.1v2.6c.7-1 1.6-1.8 2.5-2.3s2.1-.8 3.4-.8c1.7 0 3.3.4 4.6 1.3 1.3.9 2.3 2.2 3 3.8.7 1.6 1 3.4 1 5.4 0 2.1-.4 4-1.1 5.6-.7 1.7-1.8 2.9-3.3 3.8s-2.9 1.3-4.5 1.3c-1.2 0-2.2-.2-3.1-.7s-1.7-1.1-2.3-1.8v9.9h-3.3v.1zm3.1-17.9c0 2.6.5 4.6 1.6 5.8s2.3 1.9 3.9 1.9c1.5 0 2.8-.6 3.9-1.9s1.6-3.3 1.6-6c0-2.6-.5-4.5-1.6-5.8s-2.3-1.9-3.8-1.9-2.8.7-3.9 2.1c-1.1 1.2-1.7 3.2-1.7 5.8zM372.7 211.2v-4h3.5v4h-3.5zm0 24.2V215h3.5v20.4h-3.5zM381.4 235.4V215h3.1v2.9c1.5-2.2 3.7-3.4 6.5-3.4 1.2 0 2.4.2 3.4.7 1 .4 1.8 1 2.3 1.7s.9 1.6 1.1 2.6c.1.6.2 1.8.2 3.4v12.5h-3.5V223c0-1.4-.1-2.5-.4-3.2s-.7-1.3-1.4-1.7c-.7-.4-1.5-.6-2.4-.6-1.5 0-2.7.5-3.8 1.4s-1.6 2.7-1.6 5.3v11.1h-3.5v.1zM403.2 235.4V215h3.1v2.9c1.5-2.2 3.7-3.4 6.5-3.4 1.2 0 2.4.2 3.4.7 1 .4 1.8 1 2.3 1.7s.9 1.6 1.1 2.6c.1.6.2 1.8.2 3.4v12.5h-3.5V223c0-1.4-.1-2.5-.4-3.2s-.7-1.3-1.4-1.7c-.7-.4-1.5-.6-2.4-.6-1.5 0-2.7.5-3.8 1.4s-1.6 2.7-1.6 5.3v11.1h-3.5v.1zM439 228.8l3.6.4c-.6 2.1-1.6 3.7-3.1 4.9s-3.5 1.7-5.8 1.7c-3 0-5.3-.9-7.1-2.8s-2.6-4.4-2.6-7.7c0-3.4.9-6.1 2.6-8 1.8-1.9 4.1-2.8 6.9-2.8 2.7 0 5 .9 6.7 2.8s2.6 4.5 2.6 7.8v.9h-15.2c.1 2.2.8 4 1.9 5.1 1.1 1.2 2.6 1.8 4.3 1.8 1.3 0 2.3-.3 3.2-1s1.5-1.6 2-3.1zm-11.3-5.6h11.4c-.2-1.7-.6-3-1.3-3.9-1.1-1.3-2.5-2-4.3-2-1.6 0-2.9.5-4 1.6s-1.7 2.5-1.8 4.3zM446.9 235.4V215h3.1v3.1c.8-1.4 1.5-2.4 2.2-2.9s1.4-.7 2.2-.7c1.2 0 2.3.4 3.5 1.1l-1.2 3.2c-.8-.5-1.7-.7-2.5-.7s-1.4.2-2 .7-1 1.1-1.3 1.9c-.4 1.2-.6 2.6-.6 4v10.7h-3.4z"/></g></g></svg>