<?xml version="1.0" encoding="utf-8"?>
<!-- Generator: Adobe Illustrator 22.0.1, SVG Export Plug-In . SVG Version: 6.00 Build 0)  -->
<svg version="1.1" id="Livello_1" xmlns="http://www.w3.org/2000/svg" xmlns:xlink="http://www.w3.org/1999/xlink" x="0px" y="0px"
	 viewBox="0 0 500 500" style="enable-background:new 0 0 500 500;" xml:space="preserve">
<style type="text/css">
	.st0{fill:#35495E;}
	.st1{fill:#42B883;}
</style>
<g>
	<g>
		<path class="st0" d="M133.8,324.9l-3.5-2.5c7.4-10.5,11.4-22.9,11.4-35.8c0-17-6.7-32.9-19-44.7l3-3.1
			c13.1,12.6,20.3,29.6,20.3,47.8C146,300.5,141.8,313.7,133.8,324.9z"/>
		<path class="st0" d="M128.1,332l-3.1-2.9c1-1,1.9-2.1,2.8-3.3l3.3,2.7C130.1,329.7,129.1,330.9,128.1,332z"/>
		<path class="st0" d="M20.6,266.4l-4.1-1.4c9.1-26.5,34.1-44.5,62.1-44.8l0,4.3C52.5,224.8,29.2,241.6,20.6,266.4z"/>
		<path class="st0" d="M87,224.9c-1.4-0.2-2.7-0.3-4.1-0.4l0.2-4.3c1.5,0.1,2.9,0.2,4.4,0.4L87,224.9z"/>
		<path class="st0" d="M79.5,353.2c-24.9,0-47.5-13.7-59-35.8l3.8-2C35,336,56.2,348.9,79.5,348.9c2.2,0,4.4-0.1,6.6-0.4l0.5,4.3
			C84.2,353,81.8,353.2,79.5,353.2z"/>
		<path class="st0" d="M18.7,313.8c-0.6-1.4-1.2-2.9-1.8-4.3l4-1.5c0.5,1.4,1,2.7,1.6,4.1L18.7,313.8z"/>
		<path class="st0" d="M131.9,311.2l-3.9-1.8c3.4-7.1,5.1-14.8,5.1-22.7c0-9-2.3-17.9-6.6-25.7l3.8-2.1c4.7,8.5,7.1,18.1,7.1,27.8
			C137.4,295.2,135.5,303.5,131.9,311.2z"/>
		<path class="st0" d="M127.2,319.4l-3.5-2.4c0.8-1.2,1.7-2.5,2.4-3.8l3.7,2.1C129,316.7,128.1,318.1,127.2,319.4z"/>
		<path class="st0" d="M35.3,256.3l-3.5-2.4c8.7-12.6,21.7-21.1,36.7-24l0.8,4.2C55.4,236.7,43.3,244.6,35.3,256.3z"/>
		<path class="st0" d="M73.2,233.4l-0.5-4.3c1.5-0.2,3.1-0.3,4.7-0.4l0.2,4.3C76,233.1,74.6,233.3,73.2,233.4z"/>
		<path class="st0" d="M71.3,344c-15-2.1-28.4-9.9-37.7-21.9l3.4-2.6c8.6,11.1,21,18.4,34.9,20.3L71.3,344z"/>
		<path class="st0" d="M31.2,318.7c-0.9-1.3-1.7-2.7-2.4-4l3.8-2.1c0.7,1.3,1.5,2.5,2.3,3.7L31.2,318.7z"/>
		<path class="st0" d="M45.9,256.6l-3.2-2.9c5.5-6.1,12.5-10.8,20.2-13.6l1.4,4C57.3,246.7,50.9,251,45.9,256.6z"/>
		<path class="st0" d="M68.1,243.1l-1.1-4.2c1.4-0.4,2.9-0.7,4.4-0.9l0.7,4.2C70.7,242.5,69.4,242.7,68.1,243.1z"/>
		<path class="st0" d="M66.8,334.4c-7.9-2.1-15.2-6.2-21.1-11.8l2.9-3.1c5.4,5.1,12.1,8.8,19.3,10.7L66.8,334.4z"/>
		<path class="st0" d="M42.6,319.4c-1-1.2-2-2.4-3-3.7l3.5-2.5c0.8,1.2,1.8,2.3,2.7,3.4L42.6,319.4z"/>
		<path class="st0" d="M126.7,300.8l-4.1-1.2c1.2-4.2,1.9-8.5,1.9-12.9c0-5.7-1-11.2-3.1-16.4l4-1.6c2.2,5.7,3.4,11.8,3.4,18
			C128.8,291.5,128.1,296.2,126.7,300.8z"/>
		<path class="st0" d="M123.2,309.5l-3.8-2c0.7-1.3,1.3-2.7,1.9-4l4,1.6C124.6,306.6,123.9,308,123.2,309.5z"/>
	</g>
	<path class="st1" d="M90.3,353.1c-11.4,0-22-7.7-25-19.1c-1.3-4.9-1.1-10.1,0.5-14.9c1.6-4.6,0.1-10-3.8-13.6l-0.3-0.3
		c-3.8-3.6-9.2-4.7-14.2-2.9c-4.4,1.6-9.2,1.9-13.8,1c-7.2-1.4-13.4-5.9-17.1-12.2c-3.7-6.3-4.6-13.9-2.3-21
		c3.4-10.8,14.2-18.3,25.4-17.8c6.4,0.3,12.5,2.8,17,7.3c3.7,3.6,9.1,4.8,13.7,3l0.2-0.1c5-1.8,8.5-6.1,9-11
		c0.6-5.3,2.8-10.2,6.4-14.2c7.9-8.9,21.2-11.1,31.6-5.3l0,0c6.4,3.6,11,9.8,12.6,16.9c1.6,7.1,0.1,14.6-4.2,20.6
		c-2.5,3.5-5.8,6.3-9.7,8.2c-6.2,3-10.3,8.3-11.4,14.6c0,0.3-0.1,0.5-0.2,0.8c-1.2,6,0.7,12.5,5.1,17.9c2.4,2.9,4.1,6.2,5,9.8
		c1.8,6.8,0.8,13.9-2.9,20c-3.7,6-9.5,10.2-16.4,11.8C94,352.9,92.1,353.1,90.3,353.1z"/>
	<g>
		<path class="st0" d="M79.5,303.8c-9.5,0-17.2-7.7-17.2-17.2s7.7-17.2,17.2-17.2s17.2,7.7,17.2,17.2S88.9,303.8,79.5,303.8z
			 M79.5,273.8c-7.1,0-12.9,5.8-12.9,12.9s5.8,12.9,12.9,12.9s12.9-5.8,12.9-12.9C92.3,279.6,86.6,273.8,79.5,273.8z"/>
		<path class="st0" d="M105.2,271.6c-9.5,0-17.2-7.7-17.2-17.2c0-9.5,7.7-17.2,17.2-17.2s17.2,7.7,17.2,17.2c0,3.7-1.2,7.3-3.4,10.3
			l-3.4-2.6c1.7-2.2,2.6-4.9,2.6-7.7c0-7.1-5.8-12.9-12.9-12.9s-12.9,5.8-12.9,12.9s5.8,12.9,12.9,12.9c2.9,0,5.7-1,8-2.8l2.7,3.4
			C112.9,270.3,109.1,271.6,105.2,271.6z"/>
		<path class="st0" d="M105.2,263.1c-4.7,0-8.6-3.8-8.6-8.6c0-4.7,3.8-8.6,8.6-8.6c4.7,0,8.6,3.8,8.6,8.6
			C113.8,259.2,109.9,263.1,105.2,263.1z M105.2,250.2c-2.4,0-4.3,1.9-4.3,4.3s1.9,4.3,4.3,4.3c2.4,0,4.3-1.9,4.3-4.3
			S107.6,250.2,105.2,250.2z"/>
		<path class="st0" d="M38.7,295.2c-9.5,0-17.2-7.7-17.2-17.2s7.7-17.2,17.2-17.2s17.2,7.7,17.2,17.2S48.2,295.2,38.7,295.2z
			 M38.7,265.2c-7.1,0-12.9,5.8-12.9,12.9c0,7.1,5.8,12.9,12.9,12.9s12.9-5.8,12.9-12.9C51.6,271,45.8,265.2,38.7,265.2z"/>
		<path class="st0" d="M38.7,286.7c-4.7,0-8.6-3.8-8.6-8.6c0-4.7,3.8-8.6,8.6-8.6s8.6,3.8,8.6,8.6C47.3,282.8,43.4,286.7,38.7,286.7
			z M38.7,273.8c-2.4,0-4.3,1.9-4.3,4.3c0,2.4,1.9,4.3,4.3,4.3c2.4,0,4.3-1.9,4.3-4.3C43,275.7,41.1,273.8,38.7,273.8z"/>
		<path class="st0" d="M90.2,344.6c-9.5,0-17.2-7.7-17.2-17.2s7.7-17.2,17.2-17.2s17.2,7.7,17.2,17.2S99.6,344.6,90.2,344.6z
			 M90.2,314.5c-7.1,0-12.9,5.8-12.9,12.9c0,7.1,5.8,12.9,12.9,12.9c7.1,0,12.9-5.8,12.9-12.9C103.1,320.3,97.3,314.5,90.2,314.5z"
			/>
		<path class="st0" d="M90.2,336c-4.7,0-8.6-3.8-8.6-8.6s3.8-8.6,8.6-8.6c4.7,0,8.6,3.8,8.6,8.6S94.9,336,90.2,336z M90.2,323.1
			c-2.4,0-4.3,1.9-4.3,4.3c0,2.4,1.9,4.3,4.3,4.3c2.4,0,4.3-1.9,4.3-4.3C94.5,325,92.6,323.1,90.2,323.1z"/>
	</g>
</g>
<g>
	<g>
		<path class="st0" d="M172.5,290.7l-16.9-47.3H166l12,35l11.6-35h10.1l-16.9,47.3H172.5z"/>
		<path class="st0" d="M224.6,290.7v-5.1c-1.2,1.8-2.9,3.3-4.9,4.3s-4.2,1.6-6.4,1.6c-2.3,0-4.4-0.5-6.2-1.5c-1.8-1-3.2-2.4-4-4.3
			c-0.8-1.8-1.2-4.4-1.2-7.6v-21.7h9.1v15.7c0,4.8,0.2,7.8,0.5,8.9c0.3,1.1,0.9,1.9,1.8,2.6c0.9,0.6,2,1,3.4,1
			c1.5,0,2.9-0.4,4.2-1.3s2.1-1.9,2.5-3.2c0.5-1.3,0.7-4.3,0.7-9.2v-14.5h9.1v34.3H224.6z"/>
		<path class="st0" d="M262.2,279.8l9,1.5c-1.2,3.3-3,5.8-5.5,7.6c-2.5,1.7-5.6,2.6-9.4,2.6c-6,0-10.4-1.9-13.2-5.8
			c-2.3-3.1-3.4-7.1-3.4-11.8c0-5.7,1.5-10.1,4.5-13.3c3-3.2,6.7-4.8,11.3-4.8c5.1,0,9.1,1.7,12.1,5.1s4.4,8.5,4.2,15.5H249
			c0.1,2.7,0.8,4.8,2.2,6.3s3.1,2.2,5.2,2.2c1.4,0,2.6-0.4,3.6-1.2C261,282.7,261.7,281.5,262.2,279.8z M262.7,270.6
			c-0.1-2.6-0.7-4.6-2-6c-1.3-1.4-2.9-2-4.7-2c-2,0-3.6,0.7-4.9,2.2c-1.3,1.4-1.9,3.4-1.9,5.9H262.7z"/>
	</g>
	<g>
		<path class="st1" d="M161.7,326.2V298h10.6c1.9,0,3.3,0.1,4.3,0.3c1.4,0.2,2.5,0.7,3.5,1.3c0.9,0.6,1.7,1.6,2.3,2.7
			c0.6,1.2,0.9,2.4,0.9,3.8c0,2.4-0.8,4.4-2.3,6.1c-1.5,1.7-4.3,2.5-8.3,2.5h-7.2v11.4H161.7z M165.4,311.4h7.3
			c2.4,0,4.1-0.4,5.1-1.3c1-0.9,1.5-2.2,1.5-3.8c0-1.2-0.3-2.2-0.9-3c-0.6-0.8-1.4-1.4-2.4-1.7c-0.6-0.2-1.8-0.2-3.5-0.2h-7.2V311.4
			z"/>
		<path class="st1" d="M187.4,326.2v-20.4h3.1v3.1c0.8-1.4,1.5-2.4,2.2-2.9c0.7-0.5,1.4-0.7,2.2-0.7c1.2,0,2.3,0.4,3.5,1.1l-1.2,3.2
			c-0.8-0.5-1.7-0.7-2.5-0.7c-0.8,0-1.4,0.2-2,0.7c-0.6,0.5-1,1.1-1.3,1.9c-0.4,1.2-0.6,2.6-0.6,4v10.7H187.4z"/>
		<path class="st1" d="M199.3,316c0-3.8,1-6.6,3.1-8.4c1.8-1.5,3.9-2.3,6.4-2.3c2.8,0,5.1,0.9,6.9,2.8c1.8,1.8,2.7,4.4,2.7,7.6
			c0,2.6-0.4,4.7-1.2,6.2c-0.8,1.5-1.9,2.7-3.4,3.5c-1.5,0.8-3.1,1.2-4.9,1.2c-2.9,0-5.2-0.9-6.9-2.7
			C200.1,322,199.3,319.4,199.3,316z M202.8,316c0,2.6,0.6,4.6,1.7,5.9c1.1,1.3,2.6,1.9,4.3,1.9c1.7,0,3.1-0.7,4.3-2s1.7-3.3,1.7-6
			c0-2.5-0.6-4.4-1.7-5.7c-1.1-1.3-2.6-1.9-4.3-1.9c-1.7,0-3.2,0.6-4.3,1.9C203.4,311.4,202.8,313.4,202.8,316z"/>
		<path class="st1" d="M235.6,326.2v-2.6c-1.3,2-3.2,3-5.7,3c-1.6,0-3.1-0.4-4.5-1.3s-2.4-2.1-3.2-3.8c-0.7-1.6-1.1-3.5-1.1-5.5
			c0-2,0.3-3.9,1-5.5c0.7-1.7,1.7-2.9,3.1-3.8s2.9-1.3,4.5-1.3c1.2,0,2.3,0.3,3.3,0.8c1,0.5,1.7,1.2,2.3,2V298h3.4v28.1H235.6z
			 M224.7,316c0,2.6,0.5,4.6,1.7,5.9c1.1,1.3,2.4,1.9,3.9,1.9c1.5,0,2.8-0.6,3.8-1.9c1.1-1.2,1.6-3.1,1.6-5.7c0-2.8-0.5-4.8-1.6-6.1
			c-1.1-1.3-2.4-2-4-2c-1.5,0-2.8,0.6-3.8,1.9C225.2,311.3,224.7,313.3,224.7,316z"/>
		<path class="st1" d="M257.6,326.2v-3c-1.6,2.3-3.7,3.5-6.5,3.5c-1.2,0-2.3-0.2-3.4-0.7c-1-0.5-1.8-1-2.3-1.7s-0.9-1.6-1.1-2.6
			c-0.1-0.7-0.2-1.8-0.2-3.2v-12.6h3.5v11.3c0,1.8,0.1,3,0.2,3.6c0.2,0.9,0.7,1.6,1.4,2.1c0.7,0.5,1.6,0.8,2.6,0.8s2-0.3,2.9-0.8
			c0.9-0.5,1.6-1.3,1.9-2.2c0.4-0.9,0.6-2.2,0.6-4v-10.9h3.5v20.4H257.6z"/>
		<path class="st1" d="M279.4,318.7l3.4,0.4c-0.4,2.3-1.3,4.2-2.8,5.5c-1.5,1.3-3.4,2-5.6,2c-2.8,0-5-0.9-6.7-2.7
			c-1.7-1.8-2.5-4.4-2.5-7.8c0-2.2,0.4-4.1,1.1-5.8c0.7-1.7,1.8-2.9,3.3-3.7c1.5-0.8,3.1-1.2,4.9-1.2c2.2,0,4,0.6,5.4,1.7
			c1.4,1.1,2.3,2.7,2.7,4.8l-3.4,0.5c-0.3-1.4-0.9-2.4-1.7-3.1c-0.8-0.7-1.8-1-2.9-1c-1.7,0-3.2,0.6-4.2,1.9s-1.6,3.2-1.6,5.9
			c0,2.7,0.5,4.7,1.6,6c1,1.2,2.4,1.9,4.1,1.9c1.4,0,2.5-0.4,3.4-1.2C278.6,321.7,279.2,320.4,279.4,318.7z"/>
		<path class="st1" d="M293.3,323.1l0.5,3.1c-1,0.2-1.8,0.3-2.6,0.3c-1.3,0-2.2-0.2-2.9-0.6c-0.7-0.4-1.2-0.9-1.5-1.6
			c-0.3-0.6-0.4-2-0.4-4.1v-11.7h-2.5v-2.7h2.5v-5l3.4-2.1v7.1h3.5v2.7h-3.5v11.9c0,1,0.1,1.6,0.2,1.9c0.1,0.3,0.3,0.5,0.6,0.7
			s0.7,0.2,1.2,0.2C292.2,323.2,292.7,323.2,293.3,323.1z"/>
		<path class="st1" d="M306.8,317.1l3.5-0.3c0.2,1.4,0.6,2.6,1.2,3.5c0.6,0.9,1.6,1.6,2.8,2.2c1.3,0.6,2.7,0.8,4.3,0.8
			c1.4,0,2.7-0.2,3.8-0.6c1.1-0.4,1.9-1,2.4-1.7c0.5-0.7,0.8-1.5,0.8-2.4c0-0.9-0.3-1.7-0.8-2.3s-1.4-1.2-2.5-1.7
			c-0.8-0.3-2.4-0.8-5-1.4c-2.6-0.6-4.4-1.2-5.4-1.8c-1.3-0.7-2.3-1.6-3-2.6c-0.7-1-1-2.2-1-3.5c0-1.4,0.4-2.7,1.2-4
			c0.8-1.2,2-2.2,3.5-2.8s3.3-1,5.2-1c2.1,0,3.9,0.3,5.5,1s2.8,1.7,3.7,3c0.9,1.3,1.3,2.8,1.4,4.4l-3.6,0.3c-0.2-1.8-0.8-3.1-1.9-4
			c-1.1-0.9-2.7-1.4-4.9-1.4c-2.3,0-3.9,0.4-4.9,1.2s-1.5,1.8-1.5,3c0,1,0.4,1.8,1.1,2.5c0.7,0.7,2.6,1.3,5.6,2s5.1,1.3,6.2,1.8
			c1.6,0.8,2.8,1.7,3.6,2.9c0.8,1.2,1.2,2.5,1.2,4c0,1.5-0.4,2.9-1.3,4.2c-0.9,1.3-2.1,2.4-3.7,3.1c-1.6,0.7-3.4,1.1-5.4,1.1
			c-2.5,0-4.7-0.4-6.4-1.1c-1.7-0.7-3.1-1.9-4-3.3C307.3,320.7,306.8,319,306.8,317.1z"/>
		<path class="st1" d="M333.8,334v-28.2h3.1v2.6c0.7-1,1.6-1.8,2.5-2.3c0.9-0.5,2.1-0.8,3.4-0.8c1.7,0,3.3,0.4,4.6,1.3
			c1.3,0.9,2.3,2.2,3,3.8c0.7,1.6,1,3.4,1,5.4c0,2.1-0.4,4-1.1,5.6c-0.7,1.7-1.8,2.9-3.3,3.8s-2.9,1.3-4.5,1.3
			c-1.2,0-2.2-0.2-3.1-0.7c-0.9-0.5-1.7-1.1-2.3-1.8v9.9H333.8z M336.9,316.1c0,2.6,0.5,4.6,1.6,5.8s2.3,1.9,3.9,1.9
			c1.5,0,2.8-0.6,3.9-1.9c1.1-1.3,1.6-3.3,1.6-6c0-2.6-0.5-4.5-1.6-5.8s-2.3-1.9-3.8-1.9c-1.5,0-2.8,0.7-3.9,2.1
			C337.5,311.5,336.9,313.5,336.9,316.1z"/>
		<path class="st1" d="M355.7,302v-4h3.5v4H355.7z M355.7,326.2v-20.4h3.5v20.4H355.7z"/>
		<path class="st1" d="M364.4,326.2v-20.4h3.1v2.9c1.5-2.2,3.7-3.4,6.5-3.4c1.2,0,2.4,0.2,3.4,0.7c1,0.4,1.8,1,2.3,1.7
			c0.5,0.7,0.9,1.6,1.1,2.6c0.1,0.6,0.2,1.8,0.2,3.4v12.5h-3.5v-12.4c0-1.4-0.1-2.5-0.4-3.2c-0.3-0.7-0.7-1.3-1.4-1.7
			c-0.7-0.4-1.5-0.6-2.4-0.6c-1.5,0-2.7,0.5-3.8,1.4s-1.6,2.7-1.6,5.3v11.1H364.4z"/>
		<path class="st1" d="M386.2,326.2v-20.4h3.1v2.9c1.5-2.2,3.7-3.4,6.5-3.4c1.2,0,2.4,0.2,3.4,0.7c1,0.4,1.8,1,2.3,1.7
			c0.5,0.7,0.9,1.6,1.1,2.6c0.1,0.6,0.2,1.8,0.2,3.4v12.5h-3.5v-12.4c0-1.4-0.1-2.5-0.4-3.2c-0.3-0.7-0.7-1.3-1.4-1.7
			c-0.7-0.4-1.5-0.6-2.4-0.6c-1.5,0-2.7,0.5-3.8,1.4s-1.6,2.7-1.6,5.3v11.1H386.2z"/>
		<path class="st1" d="M422,319.6l3.6,0.4c-0.6,2.1-1.6,3.7-3.1,4.9s-3.5,1.7-5.8,1.7c-3,0-5.3-0.9-7.1-2.8s-2.6-4.4-2.6-7.7
			c0-3.4,0.9-6.1,2.6-8c1.8-1.9,4.1-2.8,6.9-2.8c2.7,0,5,0.9,6.7,2.8c1.7,1.9,2.6,4.5,2.6,7.8c0,0.2,0,0.5,0,0.9h-15.2
			c0.1,2.2,0.8,4,1.9,5.1c1.1,1.2,2.6,1.8,4.3,1.8c1.3,0,2.3-0.3,3.2-1S421.5,321.1,422,319.6z M410.7,314h11.4
			c-0.2-1.7-0.6-3-1.3-3.9c-1.1-1.3-2.5-2-4.3-2c-1.6,0-2.9,0.5-4,1.6C411.4,310.8,410.8,312.2,410.7,314z"/>
		<path class="st1" d="M429.9,326.2v-20.4h3.1v3.1c0.8-1.4,1.5-2.4,2.2-2.9c0.7-0.5,1.4-0.7,2.2-0.7c1.2,0,2.3,0.4,3.5,1.1l-1.2,3.2
			c-0.8-0.5-1.7-0.7-2.5-0.7c-0.8,0-1.4,0.2-2,0.7c-0.6,0.5-1,1.1-1.3,1.9c-0.4,1.2-0.6,2.6-0.6,4v10.7H429.9z"/>
	</g>
</g>
</svg>
