<?xml version="1.0" encoding="utf-8"?>
<!-- Generator: Adobe Illustrator 23.0.1, SVG Export Plug-In . SVG Version: 6.00 Build 0)  -->
<svg version="1.1" id="Livello_1" xmlns="http://www.w3.org/2000/svg" xmlns:xlink="http://www.w3.org/1999/xlink" x="0px" y="0px"
	 viewBox="0 0 500 390.5" style="enable-background:new 0 0 500 390.5;" xml:space="preserve">
<style type="text/css">
	.st0{fill:#35495E;}
	.st1{fill:#42B883;}
</style>
<g>
	<g>
		<g>
			<path class="st0" d="M149.1,232.9L149.1,232.9c-1-0.7-1.2-2-0.6-3c6.7-10.1,10.2-21.9,10.2-34.1c0-17-6.7-32.9-19-44.7l3-3.1
				c13.1,12.6,20.3,29.6,20.3,47.8c0,13.2-3.8,25.7-11,36.5C151.4,233.3,150,233.6,149.1,232.9z"/>
			<path class="st0" d="M143.5,239.7L143.5,239.7c-0.8-0.8-0.9-2-0.1-2.9c0.1-0.1,0.1-0.1,0.2-0.2c0.7-0.9,2-1,2.9-0.3l0,0
				c0.9,0.8,1,2.1,0.3,3c-0.1,0.1-0.1,0.1-0.2,0.2C145.8,240.5,144.4,240.6,143.5,239.7z"/>
			<path class="st0" d="M35.7,175l-0.1-0.1c-1.1-0.4-1.7-1.6-1.3-2.8c9.4-24.7,32.8-41.5,59.1-42.7c1.2-0.1,2.2,0.9,2.2,2.1v0.1
				c0,1.1-0.9,2-2,2.1c-24.6,1.1-46.5,16.8-55.4,40C37.9,174.8,36.7,175.3,35.7,175z"/>
			<path class="st0" d="M101.9,133.9C101.9,133.9,101.9,133.9,101.9,133.9c-1.2-0.1-2-1.1-2-2.2l0-0.1c0.1-1.2,1.1-2.1,2.3-2
				c0,0,0.1,0,0.1,0c1.2,0.1,2,1.2,1.9,2.3l0,0.1C104.1,133.2,103.1,134,101.9,133.9z"/>
			<path class="st0" d="M96.5,262.4c-24.2,0-46.2-12.9-57.9-33.9c-0.6-1-0.2-2.4,0.8-2.9l0.1,0c1-0.5,2.3-0.2,2.8,0.8
				c11,19.6,31.6,31.7,54.2,31.7c1.5,0,3.1,0,4.6-0.2c1.1-0.1,2.1,0.7,2.3,1.9l0,0c0.1,1.2-0.7,2.3-1.9,2.4
				C99.7,262.3,98.1,262.4,96.5,262.4z"/>
			<path class="st0" d="M34.9,221.1c0-0.1-0.1-0.2-0.1-0.3c-0.5-1.1,0.1-2.3,1.2-2.8l0,0c1.1-0.4,2.3,0.1,2.7,1.2
				c0,0.1,0.1,0.2,0.1,0.3c0.4,1-0.1,2.2-1.1,2.7h0C36.6,222.6,35.3,222.1,34.9,221.1z"/>
			<path class="st0" d="M147,219.5L147,219.5c-1.1-0.5-1.6-1.7-1.1-2.7c2.8-6.6,4.3-13.6,4.3-20.9c0-9-2.3-17.9-6.6-25.7l3.8-2.1
				c4.7,8.5,7.1,18.1,7.1,27.8c0,7.8-1.6,15.4-4.6,22.5C149.3,219.5,148.1,220,147,219.5z"/>
			<path class="st0" d="M142.4,227.4L142.4,227.4c-1-0.7-1.2-1.9-0.6-2.9c0.1-0.1,0.2-0.3,0.3-0.4c0.6-0.9,1.8-1.2,2.8-0.7l0,0
				c1,0.6,1.4,1.9,0.8,2.9c-0.1,0.1-0.2,0.3-0.3,0.4C144.8,227.8,143.4,228.1,142.4,227.4z"/>
			<path class="st0" d="M50.6,164.4L50.6,164.4c-1-0.7-1.2-2.1-0.5-3c8.2-11,19.9-18.6,33.2-21.7c1.2-0.3,2.4,0.5,2.6,1.7l0,0
				c0.2,1.1-0.5,2.2-1.6,2.5c-12.4,2.8-23.3,9.9-30.9,20.1C52.8,164.8,51.5,165,50.6,164.4z"/>
			<path class="st0" d="M90,140.6l0-0.1c-0.1-1.2,0.7-2.3,1.9-2.4c0.1,0,0.2,0,0.4,0c1.2-0.1,2.2,0.8,2.3,2l0,0.1
				c0.1,1.1-0.8,2.1-1.9,2.2c-0.1,0-0.2,0-0.3,0C91.1,142.6,90.1,141.7,90,140.6z"/>
			<path class="st0" d="M86.1,252.9c-13.4-2.4-25.4-9.4-34.1-19.8c-0.8-0.9-0.6-2.3,0.3-3.1l0,0c0.9-0.7,2.2-0.6,2.9,0.3
				c8.1,9.7,19.2,16.2,31.6,18.4c1.1,0.2,1.9,1.3,1.7,2.4l0,0C88.4,252.3,87.3,253.1,86.1,252.9z"/>
			<path class="st0" d="M47,226.1c0-0.1-0.1-0.1-0.1-0.2c-0.6-1-0.2-2.4,0.8-3l0,0c1-0.6,2.3-0.2,2.9,0.8c0,0,0,0.1,0.1,0.1
				c0.6,1,0.4,2.3-0.6,3l0,0C49,227.4,47.6,227.1,47,226.1z"/>
			<path class="st0" d="M61.4,164.4L61.4,164.4c-0.9-0.9-1-2.3-0.1-3.1c4.7-4.8,10.4-8.6,16.6-11.2c1.1-0.5,2.4,0.1,2.8,1.3l0,0
				c0.4,1.1-0.1,2.2-1.2,2.6c-5.7,2.4-10.9,5.9-15.2,10.3C63.5,165.2,62.2,165.2,61.4,164.4z"/>
			<path class="st0" d="M84.6,150.3L84.6,150.3c-0.3-1.2,0.4-2.5,1.6-2.7c0,0,0.1,0,0.1,0c1.2-0.2,2.3,0.6,2.5,1.7l0,0.1
				c0.2,1.1-0.5,2.2-1.7,2.4c0,0,0,0,0,0C85.9,152.1,84.9,151.4,84.6,150.3z"/>
			<path class="st0" d="M81.6,243c-6.4-2-12.3-5.3-17.3-9.7c-0.9-0.8-1-2.2-0.2-3.1l0,0c0.8-0.8,2.1-0.9,2.9-0.2
				c4.6,4,10.1,7,15.9,8.8c1.1,0.3,1.7,1.5,1.4,2.5l0,0.1C84,242.7,82.8,243.4,81.6,243z"/>
			<path class="st0" d="M58.2,226.9c-0.1-0.1-0.1-0.2-0.2-0.2c-0.8-0.9-0.6-2.4,0.4-3.1h0c0.9-0.6,2.2-0.5,2.9,0.4
				c0.1,0.1,0.1,0.2,0.2,0.2c0.7,0.9,0.6,2.2-0.2,2.9l0,0C60.3,228,59,227.9,58.2,226.9z"/>
			<path class="st0" d="M141.7,209.4L141.7,209.4c-1.2-0.3-1.8-1.4-1.5-2.5c0.9-3.6,1.4-7.2,1.4-11c0-5.7-1-11.2-3.1-16.4l4-1.6
				c2.2,5.7,3.4,11.8,3.4,18c0,4.1-0.5,8.1-1.5,12C144,209.1,142.8,209.8,141.7,209.4z"/>
			<path class="st0" d="M138.3,217.7L138.3,217.7c-1.1-0.6-1.4-1.8-1-2.8c0.1-0.1,0.1-0.3,0.2-0.4c0.5-1,1.6-1.5,2.7-1.1l0.1,0
				c1.1,0.5,1.6,1.8,1.1,2.9l-0.2,0.4C140.6,217.8,139.3,218.3,138.3,217.7z"/>
		</g>
		<path class="st1" d="M147.2,158.1c-1.6-7.1-6.2-13.3-12.6-16.9c-10.4-5.8-23.7-3.6-31.6,5.3c-3.6,4-5.8,8.9-6.4,14.2
			c-0.5,4.9-4,9.2-9,11l-0.2,0.1c-4.6,1.8-10,0.6-13.7-3c-4.5-4.5-10.6-7-17-7.3c-11.2-0.5-22,7-25.4,17.8c-2.3,7.1-1.4,14.7,2.3,21
			c3.7,6.3,9.9,10.8,17.1,12.2c4.6,0.9,9.4,0.6,13.8-1c5-1.8,10.4-0.7,14.2,2.9l0.3,0.3c3.9,3.6,5.4,9,3.8,13.6
			c-1.6,4.8-1.8,10-0.5,14.9c3,11.4,13.6,19.1,25,19.1c1.8,0,3.7-0.2,5.2-0.5c6.9-1.6,12.7-5.8,16.4-11.8c3.7-6.1,4.7-13.2,2.9-20
			c-0.9-3.6-2.6-6.9-5-9.8c-4.4-5.4-6.3-11.9-5.1-17.9c0.1-0.3,0.2-0.5,0.2-0.8c1.1-6.3,5.2-11.6,11.4-14.6c3.9-1.9,7.2-4.7,9.7-8.2
			C147.3,172.7,148.8,165.2,147.2,158.1z M55.7,195.9c-4.7,0-8.6-3.9-8.6-8.6c0-4.7,3.9-8.6,8.6-8.6s8.6,3.9,8.6,8.6
			C64.3,192.1,60.4,195.9,55.7,195.9z M107.2,245.2c-4.7,0-8.6-3.9-8.6-8.6c0-4.7,3.9-8.6,8.6-8.6s8.6,3.9,8.6,8.6
			C115.8,241.4,111.9,245.2,107.2,245.2z M122.2,172.3c-4.7,0-8.6-3.9-8.6-8.6c0-4.7,3.9-8.6,8.6-8.6s8.6,3.9,8.6,8.6
			C130.8,168.5,126.9,172.3,122.2,172.3z"/>
		<g>
			<path class="st0" d="M96.5,213c-9.5,0-17.2-7.7-17.2-17.2c0-9.5,7.7-17.2,17.2-17.2s17.2,7.7,17.2,17.2
				C113.6,205.3,105.9,213,96.5,213z M96.5,183c-7.1,0-12.9,5.8-12.9,12.9s5.8,12.9,12.9,12.9s12.9-5.8,12.9-12.9
				C109.3,188.8,103.6,183,96.5,183z"/>
		</g>
	</g>
	<g>
		<g>
			<path class="st0" d="M189.5,199.9l-16.9-47.3H183l12,35l11.6-35h10.1l-16.9,47.3H189.5z"/>
			<path class="st0" d="M241.6,199.9v-5.1c-1.2,1.8-2.9,3.3-4.9,4.3s-4.2,1.6-6.4,1.6c-2.3,0-4.4-0.5-6.2-1.5s-3.2-2.4-4-4.3
				c-0.8-1.8-1.2-4.4-1.2-7.6v-21.7h9.1v15.7c0,4.8,0.2,7.8,0.5,8.9c0.3,1.1,0.9,1.9,1.8,2.6c0.9,0.6,2,1,3.4,1
				c1.5,0,2.9-0.4,4.2-1.3s2.1-1.9,2.5-3.2c0.5-1.3,0.7-4.3,0.7-9.2v-14.5h9.1v34.3H241.6z"/>
			<path class="st0" d="M279.2,189l9,1.5c-1.2,3.3-3,5.8-5.5,7.6c-2.5,1.7-5.6,2.6-9.4,2.6c-6,0-10.4-1.9-13.2-5.8
				c-2.3-3.1-3.4-7.1-3.4-11.8c0-5.7,1.5-10.1,4.5-13.3s6.7-4.8,11.3-4.8c5.1,0,9.1,1.7,12.1,5.1s4.4,8.5,4.2,15.5H266
				c0.1,2.7,0.8,4.8,2.2,6.3s3.1,2.2,5.2,2.2c1.4,0,2.6-0.4,3.6-1.2C278,191.9,278.7,190.7,279.2,189z M279.7,179.8
				c-0.1-2.6-0.7-4.6-2-6s-2.9-2-4.7-2c-2,0-3.6,0.7-4.9,2.2c-1.3,1.4-1.9,3.4-1.9,5.9L279.7,179.8L279.7,179.8z"/>
		</g>
		<g>
			<path class="st1" d="M178.7,235.4v-28.2h10.6c1.9,0,3.3,0.1,4.3,0.3c1.4,0.2,2.5,0.7,3.5,1.3c0.9,0.6,1.7,1.6,2.3,2.7
				c0.6,1.2,0.9,2.4,0.9,3.8c0,2.4-0.8,4.4-2.3,6.1s-4.3,2.5-8.3,2.5h-7.2v11.4h-3.8V235.4z M182.4,220.6h7.3c2.4,0,4.1-0.4,5.1-1.3
				s1.5-2.2,1.5-3.8c0-1.2-0.3-2.2-0.9-3c-0.6-0.8-1.4-1.4-2.4-1.7c-0.6-0.2-1.8-0.2-3.5-0.2h-7.2L182.4,220.6L182.4,220.6z"/>
			<path class="st1" d="M204.4,235.4V215h3.1v3.1c0.8-1.4,1.5-2.4,2.2-2.9s1.4-0.7,2.2-0.7c1.2,0,2.3,0.4,3.5,1.1l-1.2,3.2
				c-0.8-0.5-1.7-0.7-2.5-0.7s-1.4,0.2-2,0.7s-1,1.1-1.3,1.9c-0.4,1.2-0.6,2.6-0.6,4v10.7L204.4,235.4L204.4,235.4z"/>
			<path class="st1" d="M216.3,225.2c0-3.8,1-6.6,3.1-8.4c1.8-1.5,3.9-2.3,6.4-2.3c2.8,0,5.1,0.9,6.9,2.8c1.8,1.8,2.7,4.4,2.7,7.6
				c0,2.6-0.4,4.7-1.2,6.2s-1.9,2.7-3.4,3.5s-3.1,1.2-4.9,1.2c-2.9,0-5.2-0.9-6.9-2.7C217.1,231.2,216.3,228.6,216.3,225.2z
				 M219.8,225.2c0,2.6,0.6,4.6,1.7,5.9c1.1,1.3,2.6,1.9,4.3,1.9s3.1-0.7,4.3-2s1.7-3.3,1.7-6c0-2.5-0.6-4.4-1.7-5.7
				c-1.1-1.3-2.6-1.9-4.3-1.9s-3.2,0.6-4.3,1.9C220.4,220.6,219.8,222.6,219.8,225.2z"/>
			<path class="st1" d="M252.6,235.4v-2.6c-1.3,2-3.2,3-5.7,3c-1.6,0-3.1-0.4-4.5-1.3s-2.4-2.1-3.2-3.8c-0.7-1.6-1.1-3.5-1.1-5.5
				s0.3-3.9,1-5.5c0.7-1.7,1.7-2.9,3.1-3.8s2.9-1.3,4.5-1.3c1.2,0,2.3,0.3,3.3,0.8s1.7,1.2,2.3,2v-10.2h3.4v28.1h-3.1V235.4z
				 M241.7,225.2c0,2.6,0.5,4.6,1.7,5.9c1.1,1.3,2.4,1.9,3.9,1.9s2.8-0.6,3.8-1.9c1.1-1.2,1.6-3.1,1.6-5.7c0-2.8-0.5-4.8-1.6-6.1
				c-1.1-1.3-2.4-2-4-2c-1.5,0-2.8,0.6-3.8,1.9C242.2,220.5,241.7,222.5,241.7,225.2z"/>
			<path class="st1" d="M274.6,235.4v-3c-1.6,2.3-3.7,3.5-6.5,3.5c-1.2,0-2.3-0.2-3.4-0.7c-1-0.5-1.8-1-2.3-1.7s-0.9-1.6-1.1-2.6
				c-0.1-0.7-0.2-1.8-0.2-3.2v-12.6h3.5v11.3c0,1.8,0.1,3,0.2,3.6c0.2,0.9,0.7,1.6,1.4,2.1c0.7,0.5,1.6,0.8,2.6,0.8s2-0.3,2.9-0.8
				s1.6-1.3,1.9-2.2c0.4-0.9,0.6-2.2,0.6-4V215h3.5v20.4L274.6,235.4L274.6,235.4z"/>
			<path class="st1" d="M296.4,227.9l3.4,0.4c-0.4,2.3-1.3,4.2-2.8,5.5s-3.4,2-5.6,2c-2.8,0-5-0.9-6.7-2.7c-1.7-1.8-2.5-4.4-2.5-7.8
				c0-2.2,0.4-4.1,1.1-5.8c0.7-1.7,1.8-2.9,3.3-3.7c1.5-0.8,3.1-1.2,4.9-1.2c2.2,0,4,0.6,5.4,1.7s2.3,2.7,2.7,4.8l-3.4,0.5
				c-0.3-1.4-0.9-2.4-1.7-3.1c-0.8-0.7-1.8-1-2.9-1c-1.7,0-3.2,0.6-4.2,1.9s-1.6,3.2-1.6,5.9c0,2.7,0.5,4.7,1.6,6
				c1,1.2,2.4,1.9,4.1,1.9c1.4,0,2.5-0.4,3.4-1.2C295.6,230.9,296.2,229.6,296.4,227.9z"/>
			<path class="st1" d="M310.3,232.3l0.5,3.1c-1,0.2-1.8,0.3-2.6,0.3c-1.3,0-2.2-0.2-2.9-0.6c-0.7-0.4-1.2-0.9-1.5-1.6
				c-0.3-0.6-0.4-2-0.4-4.1v-11.7h-2.5V215h2.5v-5l3.4-2.1v7.1h3.5v2.7h-3.5v11.9c0,1,0.1,1.6,0.2,1.9s0.3,0.5,0.6,0.7
				s0.7,0.2,1.2,0.2C309.2,232.4,309.7,232.4,310.3,232.3z"/>
			<path class="st1" d="M323.8,226.3l3.5-0.3c0.2,1.4,0.6,2.6,1.2,3.5s1.6,1.6,2.8,2.2c1.3,0.6,2.7,0.8,4.3,0.8
				c1.4,0,2.7-0.2,3.8-0.6c1.1-0.4,1.9-1,2.4-1.7s0.8-1.5,0.8-2.4s-0.3-1.7-0.8-2.3s-1.4-1.2-2.5-1.7c-0.8-0.3-2.4-0.8-5-1.4
				s-4.4-1.2-5.4-1.8c-1.3-0.7-2.3-1.6-3-2.6s-1-2.2-1-3.5c0-1.4,0.4-2.7,1.2-4c0.8-1.2,2-2.2,3.5-2.8s3.3-1,5.2-1
				c2.1,0,3.9,0.3,5.5,1s2.8,1.7,3.7,3c0.9,1.3,1.3,2.8,1.4,4.4l-3.6,0.3c-0.2-1.8-0.8-3.1-1.9-4s-2.7-1.4-4.9-1.4
				c-2.3,0-3.9,0.4-4.9,1.2s-1.5,1.8-1.5,3c0,1,0.4,1.8,1.1,2.5s2.6,1.3,5.6,2s5.1,1.3,6.2,1.8c1.6,0.8,2.8,1.7,3.6,2.9
				c0.8,1.2,1.2,2.5,1.2,4s-0.4,2.9-1.3,4.2c-0.9,1.3-2.1,2.4-3.7,3.1s-3.4,1.1-5.4,1.1c-2.5,0-4.7-0.4-6.4-1.1
				c-1.7-0.7-3.1-1.9-4-3.3C324.3,229.9,323.8,228.2,323.8,226.3z"/>
			<path class="st1" d="M350.8,243.2V215h3.1v2.6c0.7-1,1.6-1.8,2.5-2.3s2.1-0.8,3.4-0.8c1.7,0,3.3,0.4,4.6,1.3
				c1.3,0.9,2.3,2.2,3,3.8c0.7,1.6,1,3.4,1,5.4c0,2.1-0.4,4-1.1,5.6c-0.7,1.7-1.8,2.9-3.3,3.8s-2.9,1.3-4.5,1.3
				c-1.2,0-2.2-0.2-3.1-0.7s-1.7-1.1-2.3-1.8v9.9h-3.3V243.2z M353.9,225.3c0,2.6,0.5,4.6,1.6,5.8s2.3,1.9,3.9,1.9
				c1.5,0,2.8-0.6,3.9-1.9s1.6-3.3,1.6-6c0-2.6-0.5-4.5-1.6-5.8s-2.3-1.9-3.8-1.9s-2.8,0.7-3.9,2.1
				C354.5,220.7,353.9,222.7,353.9,225.3z"/>
			<path class="st1" d="M372.7,211.2v-4h3.5v4H372.7z M372.7,235.4V215h3.5v20.4H372.7z"/>
			<path class="st1" d="M381.4,235.4V215h3.1v2.9c1.5-2.2,3.7-3.4,6.5-3.4c1.2,0,2.4,0.2,3.4,0.7c1,0.4,1.8,1,2.3,1.7
				s0.9,1.6,1.1,2.6c0.1,0.6,0.2,1.8,0.2,3.4v12.5h-3.5V223c0-1.4-0.1-2.5-0.4-3.2s-0.7-1.3-1.4-1.7c-0.7-0.4-1.5-0.6-2.4-0.6
				c-1.5,0-2.7,0.5-3.8,1.4s-1.6,2.7-1.6,5.3v11.1h-3.5V235.4z"/>
			<path class="st1" d="M403.2,235.4V215h3.1v2.9c1.5-2.2,3.7-3.4,6.5-3.4c1.2,0,2.4,0.2,3.4,0.7c1,0.4,1.8,1,2.3,1.7
				s0.9,1.6,1.1,2.6c0.1,0.6,0.2,1.8,0.2,3.4v12.5h-3.5V223c0-1.4-0.1-2.5-0.4-3.2s-0.7-1.3-1.4-1.7c-0.7-0.4-1.5-0.6-2.4-0.6
				c-1.5,0-2.7,0.5-3.8,1.4s-1.6,2.7-1.6,5.3v11.1h-3.5V235.4z"/>
			<path class="st1" d="M439,228.8l3.6,0.4c-0.6,2.1-1.6,3.7-3.1,4.9s-3.5,1.7-5.8,1.7c-3,0-5.3-0.9-7.1-2.8s-2.6-4.4-2.6-7.7
				c0-3.4,0.9-6.1,2.6-8c1.8-1.9,4.1-2.8,6.9-2.8c2.7,0,5,0.9,6.7,2.8s2.6,4.5,2.6,7.8c0,0.2,0,0.5,0,0.9h-15.2
				c0.1,2.2,0.8,4,1.9,5.1c1.1,1.2,2.6,1.8,4.3,1.8c1.3,0,2.3-0.3,3.2-1S438.5,230.3,439,228.8z M427.7,223.2h11.4
				c-0.2-1.7-0.6-3-1.3-3.9c-1.1-1.3-2.5-2-4.3-2c-1.6,0-2.9,0.5-4,1.6C428.4,220,427.8,221.4,427.7,223.2z"/>
			<path class="st1" d="M446.9,235.4V215h3.1v3.1c0.8-1.4,1.5-2.4,2.2-2.9s1.4-0.7,2.2-0.7c1.2,0,2.3,0.4,3.5,1.1l-1.2,3.2
				c-0.8-0.5-1.7-0.7-2.5-0.7s-1.4,0.2-2,0.7s-1,1.1-1.3,1.9c-0.4,1.2-0.6,2.6-0.6,4v10.7L446.9,235.4L446.9,235.4z"/>
		</g>
	</g>
</g>
</svg>
