<svg id="86e2a01e-f462-495f-b64d-688585fd726f" data-name="Livello 1" xmlns="http://www.w3.org/2000/svg" viewBox="0 0 196.43 187.01"><defs><style>.e4ca39a1-a99c-4856-9b1d-ecb11aabb34b{fill:#36495d;}.\39 d9e82f8-ead9-479e-a568-e56980155499{fill:#4ab986;}</style></defs><title>VueProductSpinner</title><path class="e4ca39a1-a99c-4856-9b1d-ecb11aabb34b" d="M316.92,224.18c-.64-.54-1.31-1.07-2-1.59h0C315.61,223.11,316.28,223.64,316.92,224.18Z" transform="translate(-151.79 -164.94)"/><path class="e4ca39a1-a99c-4856-9b1d-ecb11aabb34b" d="M174.24,265.22h0c6.15-6.67,15-12.43,25.73-16.82h0C189.24,252.79,180.39,258.55,174.24,265.22Z" transform="translate(-151.79 -164.94)"/><path class="e4ca39a1-a99c-4856-9b1d-ecb11aabb34b" d="M170.56,269.79l0,0v-.08a31.39,31.39,0,0,1-5.77-15.22h-.09v32.86c0,16.31,14.37,30.72,36.37,39.42V291.6C187.42,286.21,176.73,278.65,170.56,269.79Z" transform="translate(-151.79 -164.94)"/><path class="e4ca39a1-a99c-4856-9b1d-ecb11aabb34b" d="M325.76,265.22a30.26,30.26,0,0,0,4.16-9.55,30.26,30.26,0,0,1-4.16,9.55Z" transform="translate(-151.79 -164.94)"/><path class="e4ca39a1-a99c-4856-9b1d-ecb11aabb34b" d="M329.47,269.75v.08l0,0c-10,14.3-31.74,25.25-58.54,29.06L250,335.06l-17.44-30.21L211,317.33,270.82,352V334.07c37.05-5.23,64.51-24.15,64.51-46.68V254.53h-.09A31.39,31.39,0,0,1,329.47,269.75Z" transform="translate(-151.79 -164.94)"/><path class="9d9e82f8-ead9-479e-a568-e56980155499" d="M300,248.4c3,1.22,5.83,2.55,8.5,4-2.67-1.42-5.52-2.75-8.5-4Z" transform="translate(-151.79 -164.94)"/><path class="9d9e82f8-ead9-479e-a568-e56980155499" d="M308.53,252.37a64.47,64.47,0,0,1,17.23,12.85h0A64.47,64.47,0,0,0,308.53,252.37Z" transform="translate(-151.79 -164.94)"/><path class="9d9e82f8-ead9-479e-a568-e56980155499" d="M185.07,222.59h0c-9.86,7.56-15.7,16.9-15.7,27a28.47,28.47,0,0,0,4.87,15.62h0a28.47,28.47,0,0,1-4.87-15.62C169.37,239.49,175.21,230.15,185.07,222.59Z" transform="translate(-151.79 -164.94)"/><path class="9d9e82f8-ead9-479e-a568-e56980155499" d="M300,248.4c3,1.22,5.83,2.55,8.5,4a64.47,64.47,0,0,1,17.23,12.85,30.26,30.26,0,0,0,4.16-9.55,26.24,26.24,0,0,0,.71-6.07c0-9.42-5.05-18.17-13.71-25.42-.64-.54-1.31-1.07-2-1.59Z" transform="translate(-151.79 -164.94)"/><path class="9d9e82f8-ead9-479e-a568-e56980155499" d="M200,248.4l-14.9-25.81c-9.86,7.56-15.7,16.9-15.7,27a28.47,28.47,0,0,0,4.87,15.62C180.39,258.55,189.24,252.79,200,248.4Z" transform="translate(-151.79 -164.94)"/><polygon class="9d9e82f8-ead9-479e-a568-e56980155499" points="98.32 39.1 98.21 39.1 98.21 39.1 98.11 39.1 98.21 39.28 98.32 39.1"/><path class="9d9e82f8-ead9-479e-a568-e56980155499" d="M288.6,209.6a102.09,102.09,0,0,1,9.78,3.55,76.15,76.15,0,0,1,16.55,9.44l33.28-57.65H308.93l-25,43.33C285.5,208.69,287.07,209.12,288.6,209.6Z" transform="translate(-151.79 -164.94)"/><path class="9d9e82f8-ead9-479e-a568-e56980155499" d="M270.82,298.86h.08L300,248.4a116.4,116.4,0,0,0-18-5.63c-.9-.21-1.8-.4-2.72-.59-4.42-.92-9-1.62-13.75-2.12L250,267l-15.56-26.95A126.22,126.22,0,0,0,200,248.4l32.59,56.45,38.26-22.15Z" transform="translate(-151.79 -164.94)"/><path class="9d9e82f8-ead9-479e-a568-e56980155499" d="M191.07,164.94H151.79l33.28,57.65c8-6.13,18.66-11.08,31-14.32Z" transform="translate(-151.79 -164.94)"/><path class="9d9e82f8-ead9-479e-a568-e56980155499" d="M283.91,208.27h0c1.59.42,3.16.85,4.69,1.33C287.07,209.12,285.5,208.69,283.91,208.27Z" transform="translate(-151.79 -164.94)"/><path class="9d9e82f8-ead9-479e-a568-e56980155499" d="M314.93,222.59h0a76.15,76.15,0,0,0-16.55-9.44A76.15,76.15,0,0,1,314.93,222.59Z" transform="translate(-151.79 -164.94)"/><path class="9d9e82f8-ead9-479e-a568-e56980155499" d="M288.6,209.6a102.09,102.09,0,0,1,9.78,3.55A102.09,102.09,0,0,0,288.6,209.6Z" transform="translate(-151.79 -164.94)"/><path class="9d9e82f8-ead9-479e-a568-e56980155499" d="M234.44,240.06A126.22,126.22,0,0,0,200,248.4h0a126.22,126.22,0,0,1,34.47-8.34Z" transform="translate(-151.79 -164.94)"/><path class="e4ca39a1-a99c-4856-9b1d-ecb11aabb34b" d="M270.9,298.85h-.08V282.7l-38.26,22.15L250,335.06Z" transform="translate(-151.79 -164.94)"/><path class="9d9e82f8-ead9-479e-a568-e56980155499" d="M265.56,240.06c4.73.5,9.33,1.2,13.75,2.12a136.7,136.7,0,0,0-13.75-2.12Z" transform="translate(-151.79 -164.94)"/><path class="9d9e82f8-ead9-479e-a568-e56980155499" d="M216.09,208.27h0c-12.36,3.24-23,8.19-31,14.32h0C193.07,216.46,203.73,211.51,216.09,208.27Z" transform="translate(-151.79 -164.94)"/><path class="9d9e82f8-ead9-479e-a568-e56980155499" d="M282,242.77a116.4,116.4,0,0,1,18,5.63h0A116.4,116.4,0,0,0,282,242.77Z" transform="translate(-151.79 -164.94)"/><path class="9d9e82f8-ead9-479e-a568-e56980155499" d="M185.07,222.59,200,248.4a126.22,126.22,0,0,1,34.47-8.34l-18.35-31.79C203.73,211.51,193.07,216.46,185.07,222.59Z" transform="translate(-151.79 -164.94)"/><path class="9d9e82f8-ead9-479e-a568-e56980155499" d="M314.93,222.59a76.15,76.15,0,0,0-16.55-9.44,102.09,102.09,0,0,0-9.78-3.55c-1.53-.48-3.1-.91-4.69-1.33l-18.35,31.79a136.7,136.7,0,0,1,13.75,2.12c.92.19,1.82.38,2.72.59a116.4,116.4,0,0,1,18,5.63Z" transform="translate(-151.79 -164.94)"/><path class="e4ca39a1-a99c-4856-9b1d-ecb11aabb34b" d="M256.13,239.38q-3-.12-6.13-.12a152,152,0,0,0-15.56.8L250,267l15.56-26.95-3.42-.32Q259.15,239.5,256.13,239.38Z" transform="translate(-151.79 -164.94)"/><path class="e4ca39a1-a99c-4856-9b1d-ecb11aabb34b" d="M249.73,204.05h.16l-22.57-39.11H191.07l25,43.33A133.81,133.81,0,0,1,249.73,204.05Z" transform="translate(-151.79 -164.94)"/><path class="e4ca39a1-a99c-4856-9b1d-ecb11aabb34b" d="M250.3,204.05a134,134,0,0,1,33.61,4.22l25-43.33H272.68l-22.57,39.11Z" transform="translate(-151.79 -164.94)"/><path class="e4ca39a1-a99c-4856-9b1d-ecb11aabb34b" d="M250.3,204.05h0a134,134,0,0,1,33.61,4.22h0A134,134,0,0,0,250.3,204.05Z" transform="translate(-151.79 -164.94)"/><path class="e4ca39a1-a99c-4856-9b1d-ecb11aabb34b" d="M250,239.26a152,152,0,0,0-15.56.8h0a152,152,0,0,1,15.56-.8Z" transform="translate(-151.79 -164.94)"/><path class="e4ca39a1-a99c-4856-9b1d-ecb11aabb34b" d="M249.73,204.05a133.81,133.81,0,0,0-33.64,4.22h0a133.81,133.81,0,0,1,33.64-4.22Z" transform="translate(-151.79 -164.94)"/><path class="e4ca39a1-a99c-4856-9b1d-ecb11aabb34b" d="M250,239.26h0q3.09,0,6.13.12Q253.08,239.26,250,239.26Z" transform="translate(-151.79 -164.94)"/><path class="e4ca39a1-a99c-4856-9b1d-ecb11aabb34b" d="M262.14,239.74l3.42.32h0Z" transform="translate(-151.79 -164.94)"/><path class="e4ca39a1-a99c-4856-9b1d-ecb11aabb34b" d="M256.13,239.38q3,.12,6,.36Q259.15,239.5,256.13,239.38Z" transform="translate(-151.79 -164.94)"/><path class="e4ca39a1-a99c-4856-9b1d-ecb11aabb34b" d="M216.09,208.27l18.35,31.79a152,152,0,0,1,15.56-.8h0q3.09,0,6.13.12t6,.36l3.42.32,18.35-31.79a134,134,0,0,0-33.61-4.22h-.19l-.11.18-.11-.18h-.16A133.81,133.81,0,0,0,216.09,208.27Z" transform="translate(-151.79 -164.94)"/></svg>