<?xml version="1.0" encoding="UTF-8"?>
<svg viewBox="0 0 124 98" version="1.1" xmlns="http://www.w3.org/2000/svg" xmlns:xlink="http://www.w3.org/1999/xlink">
    <g stroke="none" stroke-width="1" fill="none" fill-rule="evenodd">
        <path d="M67.7137374,3.5 C66.6215184,3.5 65.7355412,4.39304385 65.7355412,5.48358139 C65.7355412,6.57411893 66.6221816,7.46716278 67.7137374,7.46716278 C80.6293758,7.46716278 91.5389655,33.8169436 91.5389655,64.9996675 C91.5389655,96.1823915 80.6293758,122.532172 67.7137374,122.532172 C54.9008882,122.532172 44.0708774,96.5713942 43.908404,65.6945527 L50.9478116,72.761103 C51.3357582,73.1540955 51.8424099,73.3402848 52.3483984,73.3402848 C52.85505,73.3402848 53.3617017,73.1461159 53.7489852,72.761103 C54.5208995,71.9870873 54.5208995,70.7256546 53.7489852,69.9556287 L41.918271,58.0840636 L30.0789357,69.9556287 C29.3070214,70.7256546 29.3070214,71.9870873 30.0789357,72.761103 C30.85085,73.5311289 32.1048792,73.5311289 32.8767935,72.761103 L39.9559905,65.6626345 C40.1144849,99.8250528 52.2462723,126.5 67.7183795,126.5 C83.3012339,126.5 95.5,99.4839274 95.5,65.0003325 C95.5,30.5167376 83.2959286,3.5 67.7137374,3.5 Z" fill="#435466" fill-rule="nonzero" transform="translate(62.500000, 65.000000) rotate(-90.000000) translate(-62.500000, -65.000000) "></path>
        <polygon fill="#4DBA87" fill-rule="nonzero" transform="translate(62.221301, 39.499954) scale(-1, 1) rotate(-180.000000) translate(-62.221301, -39.499954) " points="72.6398818 78.5445558 62.221301 60.5105093 51.8027202 78.5445558 17.1073616 78.5445558 62.221301 0.455352326 107.33524 78.5445558"></polygon>
        <polygon fill="#435466" fill-rule="nonzero" transform="translate(62.221301, 23.882067) scale(-1, 1) rotate(-180.000000) translate(-62.221301, -23.882067) " points="72.6398818 47.3087826 62.221301 29.274736 51.8027202 47.3087826 35.1529374 47.3087826 62.221301 0.455352326 89.2896646 47.3087826"></polygon>
        <text font-family="Helvetica-Bold, Helvetica" font-size="30" font-weight="bold" fill="#3F5468">
            <tspan x="0" y="87">360°</tspan>
        </text>
    </g>
</svg>
